<svg xmlns="http://www.w3.org/2000/svg" viewBox="0 0 931.2 82.57"><title>Asset 5</title><g id="Layer_2" data-name="Layer 2"><g id="Layer_1-2" data-name="Layer 1"><rect x="821.08" y="26.95" width="1.67" height="51.9" fill="#fff"/><polygon points="575.94 26.95 598.84 26.95 598.84 30.2 579.64 30.2 579.64 41.24 597.63 41.24 597.63 44.52 579.64 44.52 579.64 56.58 599.06 56.58 599.06 59.83 575.94 59.83 575.94 26.95" fill="#fff" fill-rule="evenodd"/><path d="M622.19,58.68h0l-.28.19-.29.18-.29.16-.3.16-.3.15-.32.14-.31.14-.32.12-.32.1-.33.1-.33.09-.33.08-.33.07-.33,0-.34,0-.34,0-.33,0h-.34l-.66,0-.65-.05-.62-.08-.6-.12-.58-.14-.56-.18-.54-.21-.52-.23-.5-.26-.47-.29-.46-.31-.43-.34-.41-.36-.39-.39-.37-.4-.34-.43-.32-.44-.31-.47-.28-.48-.26-.5L607,54.3l-.21-.53-.2-.54-.17-.56-.16-.56-.13-.58-.11-.59-.09-.6-.08-.61,0-.61,0-.62V47.24l0-.62,0-.61.08-.6.09-.6.11-.59.13-.58.16-.57.17-.55.2-.55.21-.53.24-.51.26-.5.28-.49.31-.46.32-.45.34-.43.37-.41.39-.38.41-.37.43-.34.45-.32.48-.29.5-.26.52-.24.54-.2.56-.18.58-.15.6-.12.62-.08.65,0,.66,0h.68l.34,0,.33,0,.33,0,.33.06.33.07.32.08.32.09.32.1.31.11.3.12.3.14.3.14.29.15.28.17.27.17.27.18.26.2.25.2.25.22.23.22.23.24.22.24.2.26.2.26.19.28.17.28.06.12V27h3.52V59.83h-3.29V56.21l-.09.14-.18.26-.19.27-.2.25-.22.24-.23.24-.23.23-.25.22-.26.22-.26.2Zm-5.73-1.2H617l.51,0,.5-.07.47-.1.45-.12.43-.14.41-.16.38-.19.37-.21.35-.23.33-.25.31-.26.29-.28.27-.3.26-.32.24-.33.22-.35.21-.36.19-.37.18-.38.16-.39.14-.41.13-.41.12-.42L624,51l.08-.44.07-.43.06-.44,0-.45,0-.44,0-.45v-.88l0-.45,0-.44,0-.44-.06-.44-.07-.43L624,44.8l-.1-.43-.12-.42-.13-.41-.14-.4-.16-.4-.18-.38L623,42l-.21-.36-.22-.35-.24-.33-.26-.32-.27-.3-.3-.28-.31-.27-.32-.25-.35-.23-.37-.21-.39-.18-.4-.17-.43-.15-.45-.12-.47-.09-.5-.07-.51,0-.55,0-.47,0-.46,0-.44.07-.42.09-.4.12-.39.14-.36.17-.36.19-.33.21-.32.23-.3.24-.29.27-.27.28-.25.3-.24.32-.23.33-.21.35-.2.36-.18.37-.17.39-.15.39-.14.41-.13.41-.11.42-.1.42-.08.44-.07.43-.06.44,0,.44,0,.44,0,.45v.88l0,.45,0,.44,0,.45.06.44.07.43.08.44.1.42.11.42.13.42.14.4.15.39.17.39.18.37.2.36.21.35.23.33.24.31.25.3.27.29.29.26.3.25.32.23.33.2.35.19.37.17.39.14.4.12.42.09.44.07.46,0Z" fill="#fff" fill-rule="evenodd"/><path d="M639.43,49h0V49l0,.38,0,.38,0,.39.07.39.07.39.09.39.1.38.11.38.13.38.15.37.15.36.17.36.19.34.2.34.22.32.23.32.24.3.26.28.28.27.29.26.31.23.32.22.34.2.36.18.37.16.39.14.41.12.43.09.45.07.46,0h.86l.36,0,.35,0,.34,0,.33-.06.31-.08.31-.08.29-.1.29-.1.27-.12.27-.13.25-.14.25-.15.23-.17.23-.17.22-.18.21-.19.2-.2.19-.21.18-.22.18-.23.17-.24.15-.25.15-.25.15-.26.13-.28.13-.27.11-.29.11-.3.11-.3.09-.3.15-.56h3.49l-.22.89-.13.48-.15.47-.16.46-.17.44-.18.43-.19.42-.21.4-.22.39-.23.37-.25.36L655,57l-.28.33-.28.32-.3.3-.32.28-.33.27-.34.26-.36.23-.37.22-.38.2-.41.19-.41.17-.43.15-.45.14-.46.11-.48.1-.49.08-.51.07-.52,0-.54,0h-.55l-.7,0-.68-.05-.65-.08-.63-.11-.6-.15-.58-.18-.56-.2-.53-.23-.51-.26-.48-.29-.46-.31-.43-.34-.42-.36-.39-.38-.36-.41-.34-.42-.32-.45-.3-.46-.27-.49-.25-.49-.23-.52-.21-.53-.19-.54-.17-.56-.14-.56-.13-.58-.1-.59-.09-.6-.06-.61,0-.62,0-.62V47.28l0-.58,0-.58.06-.58.09-.58.1-.57.13-.56.14-.56.17-.55.19-.54.21-.53.23-.52.25-.5.27-.49.3-.48.31-.46.35-.44.36-.42.39-.4.41-.38.43-.35.46-.33.49-.31.5-.27.54-.25.55-.22.58-.19.61-.16.62-.13.66-.09.68,0,.7,0,.71,0,.68.06.66.09.63.13.61.17.58.2.56.23.52.27.51.29.48.33.45.35.43.37.41.41.37.42.36.45.33.46.31.49.28.5L656,41l.24.54.21.55.19.56.17.57.15.59.13.59.11.61.09.6.06.62.05.62,0,.62v.63l0,.93Zm14.48-3.06v-.05l0-.39,0-.38-.06-.38-.08-.38-.09-.37-.1-.36-.12-.36-.13-.35-.15-.35-.16-.33-.17-.33-.18-.31-.2-.31-.21-.3-.22-.28-.23-.27-.25-.26-.25-.24-.27-.23-.28-.22-.3-.2-.3-.18-.32-.17-.33-.15-.34-.13-.35-.12-.36-.09-.37-.08-.39-.05-.39,0h-.82l-.4,0-.39.05-.38.08-.36.09-.35.12-.34.13-.33.15-.32.17-.3.19-.3.2-.28.22-.27.23-.27.24-.24.26-.24.28-.23.28-.21.3-.21.31-.19.31-.18.33-.17.34-.15.34-.15.36-.13.36-.12.36-.11.37-.1.38-.08.37-.07.39-.06.38v0Z" fill="#fff" fill-rule="evenodd"/><rect x="665.11" y="26.95" width="3.52" height="32.88" fill="#fff"/><polygon points="705.44 35.87 709.14 35.87 701.38 59.83 697.84 59.83 692.28 40.89 686.76 59.83 683.19 59.83 675.5 35.87 679.2 35.87 684.96 55.16 690.43 35.87 694.17 35.87 699.68 55.16 705.44 35.87" fill="#fff" fill-rule="evenodd"/><path d="M718.29,49h0V49l0,.38,0,.38,0,.39.06.39.07.39.09.39.1.38.11.38.13.38.14.37.16.36.17.36.18.34.2.34.22.33.23.31.24.3.26.28.27.27.29.26.31.23.32.22.33.21.35.18L723,57l.39.13.4.12.43.09.44.07.45,0H726l.36,0,.35,0,.34,0,.33-.06.32-.08.31-.08.29-.1.29-.1.27-.12.27-.13.25-.14.25-.15.23-.17.23-.17.22-.18.21-.19.2-.2.19-.21.18-.22.17-.23.17-.24.16-.25.14-.25.14-.26.14-.27.12-.28.12-.29.11-.29.1-.31.1-.3.15-.56h3.53l-.23.89-.13.48-.15.47-.16.46-.17.44-.18.43-.2.42-.2.4-.22.39-.24.38-.24.36-.26.34-.28.33-.29.32-.3.3-.31.28-.33.27-.35.26-.36.23-.37.22-.39.21-.4.18-.42.17-.43.15-.45.14-.46.11-.48.1-.49.08-.51.07-.52,0-.54,0h-.56l-.69,0-.67-.05-.65-.08-.62-.12-.6-.14-.58-.18-.55-.2-.53-.23-.5-.26-.48-.29-.46-.31-.43-.34-.42-.36-.38-.38-.37-.41-.34-.42-.32-.45-.3-.46-.27-.49-.25-.49-.23-.52-.21-.53-.19-.54-.17-.56-.14-.56-.13-.58L715,51l-.08-.6-.07-.61-.05-.62,0-.62V47.28l0-.58.05-.58.07-.58L715,45l.11-.57.13-.56.14-.56.17-.55.19-.54.21-.53.23-.52.25-.5.27-.49.3-.48.32-.46.34-.44.36-.42.39-.4.41-.37.43-.36.46-.33.48-.31.51-.27.52-.25.56-.22.57-.19.6-.16.63-.13.64-.09.68,0,.69,0,.71,0,.69.06.65.09.64.13.61.17.58.2.55.23.54.27.5.29.48.33.46.35.43.37.4.41.38.42.36.45.33.46.31.49.29.5.26.52.24.54.21.55.2.56.17.57.15.59.13.59L736,45l.09.6.06.62,0,.62,0,.62V49Zm14.41-3.06v-.05l0-.39,0-.38-.06-.38-.08-.38-.09-.37-.1-.36-.12-.36L732,42.9l-.15-.35-.15-.33-.17-.33-.18-.31-.2-.31L731,41l-.22-.28-.23-.27-.25-.26-.25-.24-.27-.23-.28-.22-.3-.2-.3-.18-.32-.17-.33-.15-.34-.13-.35-.12-.36-.09-.38-.08-.39-.05-.4,0h-.81l-.39,0-.39.05-.37.08-.35.09-.35.12-.34.13-.32.15-.31.17-.31.19-.29.2-.28.21-.27.24-.26.24-.24.26-.24.28-.23.28-.21.3-.2.31-.19.31-.18.33-.17.34-.16.34-.14.36-.13.35-.12.37-.11.37-.1.38-.08.37-.07.39-.06.38v0Z" fill="#fff" fill-rule="evenodd"/><path d="M744,27h3.44v5.18H744Zm0,8.92h3.44v24H744Z" fill="#fff" fill-rule="evenodd"/><polygon points="770.75 43.39 770.71 42.77 770.68 42.47 770.63 42.18 770.58 41.91 770.5 41.64 770.42 41.39 770.32 41.15 770.22 40.91 770.1 40.69 769.97 40.48 769.83 40.28 769.68 40.09 769.51 39.91 769.34 39.74 769.16 39.58 768.98 39.42 768.78 39.28 768.57 39.15 768.36 39.02 768.13 38.91 767.9 38.8 767.66 38.71 767.42 38.62 767.17 38.54 766.91 38.48 766.65 38.42 766.38 38.37 766.1 38.33 765.83 38.29 765.54 38.27 765.26 38.26 764.97 38.25 764.5 38.26 764.03 38.3 763.57 38.36 763.11 38.45 762.65 38.56 762.22 38.7 761.81 38.88 761.42 39.08 761.07 39.32 760.75 39.58 760.47 39.88 760.23 40.22 760.04 40.59 759.89 41.01 759.8 41.47 759.77 41.97 759.8 42.38 759.89 42.75 760.02 43.09 760.2 43.41 760.43 43.7 760.69 43.96 760.99 44.21 761.32 44.43 761.67 44.63 762.04 44.82 762.43 44.99 762.83 45.13 763.22 45.27 763.62 45.39 764 45.49 764.36 45.59 768.13 46.42 768.43 46.47 768.74 46.53 769.05 46.6 769.37 46.68 769.68 46.76 769.99 46.86 770.29 46.97 770.6 47.08 770.89 47.21 771.19 47.35 771.48 47.49 771.76 47.65 772.03 47.82 772.3 48 772.56 48.19 772.82 48.39 773.06 48.6 773.29 48.82 773.51 49.06 773.72 49.3 773.92 49.56 774.1 49.83 774.27 50.11 774.42 50.41 774.56 50.72 774.68 51.03 774.79 51.36 774.88 51.71 774.95 52.06 775 52.43 775.03 52.81 775.04 53.2 775.02 53.68 774.98 54.14 774.9 54.59 774.8 55.02 774.67 55.44 774.52 55.83 774.34 56.21 774.14 56.58 773.91 56.92 773.67 57.24 773.41 57.55 773.12 57.85 772.82 58.12 772.51 58.38 772.18 58.62 771.84 58.85 771.48 59.06 771.11 59.25 770.74 59.43 770.35 59.6 769.95 59.75 769.55 59.88 769.15 60.01 768.73 60.11 768.32 60.21 767.9 60.29 767.48 60.36 767.06 60.41 766.64 60.45 766.22 60.48 765.8 60.5 765.38 60.51 764.87 60.5 764.36 60.48 763.87 60.44 763.38 60.39 762.91 60.32 762.45 60.23 762 60.13 761.56 60.01 761.13 59.88 760.72 59.73 760.32 59.56 759.93 59.38 759.55 59.17 759.19 58.96 758.84 58.72 758.51 58.47 758.19 58.2 757.89 57.91 757.6 57.6 757.33 57.28 757.08 56.94 756.84 56.58 756.62 56.21 756.42 55.81 756.24 55.41 756.07 54.98 755.92 54.53 755.79 54.07 755.68 53.59 755.59 53.1 755.52 52.58 755.43 51.7 758.91 51.7 758.97 52.34 759.02 52.66 759.07 52.97 759.15 53.27 759.23 53.57 759.33 53.85 759.44 54.12 759.56 54.38 759.7 54.63 759.84 54.86 760 55.09 760.17 55.31 760.35 55.52 760.53 55.72 760.74 55.9 760.95 56.08 761.16 56.25 761.4 56.4 761.63 56.55 761.89 56.69 762.14 56.81 762.41 56.93 762.69 57.03 762.97 57.13 763.27 57.21 763.57 57.28 763.88 57.34 764.2 57.39 764.52 57.43 764.85 57.46 765.19 57.48 765.53 57.48 765.77 57.48 766.02 57.47 766.27 57.45 766.52 57.43 766.78 57.4 767.03 57.36 767.29 57.31 767.55 57.26 767.81 57.2 768.07 57.13 768.33 57.05 768.58 56.96 768.82 56.87 769.07 56.76 769.3 56.65 769.53 56.53 769.75 56.4 769.96 56.27 770.16 56.12 770.35 55.97 770.53 55.8 770.7 55.63 770.85 55.45 770.99 55.26 771.12 55.06 771.23 54.86 771.33 54.64 771.41 54.41 771.47 54.17 771.52 53.92 771.55 53.66 771.56 53.39 771.53 52.94 771.46 52.54 771.33 52.18 771.16 51.85 770.95 51.54 770.71 51.26 770.42 51.01 770.1 50.77 769.75 50.55 769.37 50.36 768.96 50.18 768.53 50.01 768.09 49.86 767.64 49.72 767.17 49.59 766.71 49.47 763.04 48.63 762.68 48.54 762.34 48.44 762.01 48.34 761.67 48.24 761.35 48.13 761.03 48.02 760.72 47.91 760.41 47.79 760.12 47.66 759.83 47.53 759.55 47.39 759.27 47.24 759.01 47.09 758.75 46.93 758.51 46.76 758.27 46.57 758.05 46.38 757.84 46.18 757.63 45.97 757.44 45.74 757.27 45.51 757.1 45.26 756.95 45 756.82 44.73 756.7 44.45 756.59 44.15 756.5 43.84 756.43 43.52 756.37 43.18 756.33 42.83 756.3 42.47 756.29 42.09 756.31 41.63 756.35 41.19 756.42 40.76 756.51 40.35 756.63 39.96 756.77 39.59 756.94 39.23 757.13 38.89 757.34 38.56 757.57 38.25 757.81 37.96 758.08 37.69 758.36 37.43 758.65 37.18 758.96 36.95 759.28 36.74 759.62 36.54 759.96 36.36 760.32 36.19 760.68 36.04 761.05 35.9 761.43 35.77 761.81 35.66 762.2 35.56 762.59 35.47 762.99 35.39 763.39 35.33 763.79 35.28 764.19 35.24 764.59 35.21 764.99 35.2 765.38 35.19 765.82 35.2 766.26 35.22 766.69 35.26 767.11 35.31 767.53 35.38 767.93 35.46 768.34 35.55 768.73 35.67 769.11 35.8 769.49 35.94 769.85 36.1 770.21 36.27 770.55 36.46 770.89 36.67 771.21 36.89 771.51 37.13 771.81 37.38 772.09 37.65 772.35 37.94 772.61 38.24 772.84 38.55 773.06 38.89 773.26 39.23 773.45 39.6 773.61 39.98 773.76 40.37 773.89 40.78 774 41.21 774.09 41.65 774.16 42.1 774.22 42.57 774.26 43.39 770.75 43.39" fill="#fff" fill-rule="evenodd"/><polygon points="797.01 43.39 796.97 42.77 796.94 42.47 796.89 42.18 796.83 41.91 796.75 41.64 796.67 41.39 796.57 41.15 796.46 40.91 796.34 40.69 796.21 40.48 796.07 40.28 795.92 40.09 795.76 39.91 795.59 39.74 795.41 39.58 795.22 39.42 795.02 39.28 794.81 39.15 794.6 39.02 794.38 38.91 794.14 38.8 793.9 38.71 793.66 38.62 793.41 38.54 793.15 38.48 792.88 38.42 792.61 38.37 792.34 38.33 792.06 38.29 791.77 38.27 791.48 38.26 791.19 38.25 790.74 38.26 790.27 38.3 789.81 38.36 789.35 38.45 788.91 38.56 788.48 38.7 788.07 38.88 787.68 39.08 787.33 39.32 787.01 39.58 786.73 39.88 786.49 40.22 786.3 40.59 786.16 41.01 786.07 41.47 786.03 41.97 786.06 42.38 786.15 42.76 786.28 43.09 786.46 43.41 786.68 43.7 786.94 43.96 787.24 44.21 787.56 44.43 787.91 44.63 788.28 44.82 788.66 44.99 789.06 45.13 789.45 45.27 789.84 45.39 790.22 45.49 790.59 45.59 794.39 46.42 794.69 46.47 795.01 46.53 795.32 46.6 795.64 46.68 795.95 46.76 796.26 46.86 796.57 46.97 796.87 47.08 797.17 47.21 797.47 47.35 797.75 47.49 798.04 47.65 798.31 47.82 798.58 48 798.84 48.19 799.09 48.39 799.33 48.6 799.56 48.82 799.78 49.06 799.99 49.3 800.19 49.56 800.37 49.83 800.54 50.12 800.69 50.41 800.83 50.72 800.95 51.03 801.05 51.37 801.14 51.71 801.21 52.06 801.26 52.43 801.29 52.81 801.3 53.2 801.28 53.68 801.24 54.14 801.17 54.59 801.06 55.02 800.93 55.44 800.78 55.83 800.6 56.21 800.4 56.58 800.17 56.92 799.93 57.25 799.67 57.55 799.38 57.85 799.08 58.12 798.77 58.38 798.44 58.62 798.09 58.85 797.74 59.06 797.37 59.25 796.99 59.43 796.6 59.6 796.21 59.75 795.8 59.88 795.39 60.01 794.98 60.11 794.56 60.21 794.14 60.29 793.72 60.36 793.29 60.41 792.87 60.45 792.45 60.48 792.02 60.5 791.61 60.51 791.1 60.5 790.59 60.48 790.1 60.44 789.62 60.39 789.15 60.32 788.69 60.23 788.24 60.13 787.81 60.01 787.38 59.88 786.97 59.73 786.57 59.56 786.18 59.38 785.81 59.17 785.45 58.96 785.1 58.72 784.77 58.47 784.45 58.2 784.15 57.91 783.86 57.6 783.59 57.28 783.34 56.94 783.1 56.58 782.88 56.21 782.68 55.81 782.5 55.41 782.33 54.98 782.18 54.53 782.05 54.07 781.94 53.59 781.85 53.1 781.78 52.58 781.69 51.7 785.18 51.7 785.23 52.34 785.27 52.66 785.33 52.98 785.4 53.28 785.48 53.57 785.58 53.85 785.68 54.12 785.81 54.38 785.94 54.63 786.08 54.87 786.24 55.09 786.41 55.31 786.59 55.52 786.77 55.72 786.97 55.9 787.18 56.08 787.4 56.25 787.63 56.41 787.87 56.55 788.12 56.69 788.38 56.81 788.64 56.93 788.92 57.03 789.2 57.13 789.49 57.21 789.79 57.28 790.09 57.34 790.41 57.4 790.73 57.43 791.05 57.46 791.38 57.48 791.72 57.48 791.97 57.48 792.22 57.47 792.47 57.45 792.73 57.43 792.99 57.4 793.26 57.36 793.52 57.31 793.79 57.26 794.05 57.2 794.31 57.13 794.57 57.05 794.82 56.96 795.07 56.87 795.32 56.76 795.55 56.65 795.78 56.53 796 56.4 796.22 56.27 796.42 56.12 796.61 55.97 796.79 55.8 796.96 55.63 797.11 55.45 797.25 55.26 797.38 55.06 797.49 54.86 797.59 54.64 797.67 54.41 797.74 54.17 797.78 53.92 797.81 53.66 797.82 53.39 797.79 52.94 797.72 52.54 797.59 52.18 797.42 51.85 797.22 51.54 796.97 51.26 796.68 51.01 796.36 50.77 796 50.55 795.62 50.36 795.21 50.18 794.78 50.01 794.33 49.86 793.87 49.72 793.4 49.59 792.93 49.47 789.3 48.63 788.95 48.54 788.6 48.44 788.27 48.34 787.94 48.24 787.61 48.13 787.29 48.02 786.98 47.91 786.67 47.79 786.37 47.66 786.08 47.53 785.8 47.39 785.52 47.24 785.26 47.09 785 46.93 784.75 46.76 784.52 46.58 784.29 46.38 784.08 46.18 783.87 45.97 783.68 45.75 783.5 45.51 783.34 45.26 783.19 45 783.05 44.73 782.93 44.45 782.82 44.15 782.73 43.84 782.65 43.52 782.59 43.18 782.55 42.83 782.53 42.47 782.52 42.09 782.53 41.63 782.57 41.19 782.64 40.76 782.74 40.35 782.86 39.96 783 39.59 783.17 39.23 783.36 38.89 783.57 38.56 783.8 38.25 784.05 37.96 784.31 37.69 784.59 37.42 784.89 37.18 785.2 36.95 785.52 36.74 785.86 36.54 786.2 36.36 786.56 36.19 786.92 36.04 787.29 35.9 787.67 35.77 788.05 35.66 788.44 35.56 788.83 35.47 789.23 35.39 789.62 35.33 790.02 35.28 790.42 35.24 790.82 35.21 791.21 35.2 791.61 35.19 792.05 35.2 792.5 35.22 792.93 35.26 793.36 35.31 793.78 35.38 794.19 35.46 794.6 35.55 794.99 35.67 795.38 35.8 795.75 35.94 796.12 36.1 796.48 36.27 796.82 36.46 797.15 36.67 797.47 36.89 797.78 37.13 798.07 37.38 798.35 37.65 798.62 37.94 798.87 38.24 799.1 38.56 799.32 38.89 799.52 39.24 799.7 39.6 799.86 39.98 800.01 40.38 800.13 40.78 800.24 41.21 800.33 41.65 800.4 42.1 800.44 42.58 800.49 43.39 797.01 43.39" fill="#fff" fill-rule="evenodd"/><path d="M512.6,54.28h17a7.9,7.9,0,0,0-2.74,1,2.86,2.86,0,1,0,2.84,4.91c2.13-1,3.62-4,6-5.65-.21,2.93-2,5.7-1.86,8.06a2.86,2.86,0,1,0,5.66,0c.18-2.36-1.65-5.13-1.86-8.06,2.43,1.65,3.92,4.62,6,5.65a2.86,2.86,0,1,0,2.84-4.91c-2-1.33-5.28-1.13-7.91-2.41,2.63-1.28,5.95-1.09,7.91-2.42a2.86,2.86,0,1,0-2.84-4.91c-2.12,1-3.61,4-6,5.65.21-2.92,2-5.7,1.86-8.06a2.86,2.86,0,1,0-5.66,0c-.18,2.36,1.65,5.14,1.86,8.06-2.42-1.64-3.91-4.62-6-5.64a2.86,2.86,0,1,0-2.84,4.9,8.05,8.05,0,0,0,2.74,1h-17a24.17,24.17,0,0,1,44.68-11.34h3.18a26.93,26.93,0,1,0,0,25.45h-3.19A24.17,24.17,0,0,1,512.6,54.28" fill="#fff" fill-rule="evenodd"/><path d="M618.4,72.13c0-.46-.23-2.94-3.59-2.94-1.85,0-3.56.93-3.56,3,0,1.29.87,2,2.18,2.28l1.83.45c1.35.34,1.87.59,1.87,1.34,0,1-1,1.49-2.16,1.49-2.23,0-2.44-1.18-2.49-1.92H611c0,1.13.32,3.29,4,3.29,2.12,0,3.72-1.17,3.72-3.11,0-1.27-.69-2-2.64-2.48l-1.58-.39c-1.22-.31-1.71-.49-1.71-1.26,0-1.16,1.38-1.33,1.87-1.33,2,0,2.21,1,2.23,1.58ZM607,75.6c0,1.26-1.43,2.21-2.9,2.21a1.49,1.49,0,0,1-1.71-1.64c0-1.18,1.24-1.41,2-1.52,2-.25,2.35-.4,2.6-.59Zm-4.32-3.29a1.86,1.86,0,0,1,2.15-1.81c1.49,0,2.21.54,2.21,1.53s-.45,1.07-.83,1.11l-2.6.32c-2.62.33-2.85,2.16-2.85,3a2.71,2.71,0,0,0,2.94,2.71,4.25,4.25,0,0,0,3.39-1.53c.06.72.27,1.44,1.67,1.44a2.73,2.73,0,0,0,.87-.18V77.7a2.67,2.67,0,0,1-.52.07c-.33,0-.52-.16-.52-.55V71.81c0-2.41-2.73-2.62-3.49-2.62-2.32,0-3.81.88-3.88,3.12Zm-10.43,1.1a2.75,2.75,0,0,1,2.6-2.8c1.93,0,2.54,1.34,2.63,2.8Zm5.15,2.49A2.37,2.37,0,0,1,595,77.75c-1.81,0-2.73-1.13-2.73-3.08h6.86c0-3.33-1.33-5.48-4-5.48-3.11,0-4.51,2.32-4.51,5.22,0,2.72,1.56,4.71,4.2,4.71A3.91,3.91,0,0,0,599,75.9Zm-15.56-1.77c0-1.21.13-3.52,2.57-3.52,2.28,0,2.53,2.46,2.53,4,0,2.5-1.56,3.16-2.57,3.16C582.65,77.75,581.84,76.19,581.84,74.13Zm6.7-8.17H587v4.7l0,.13a3.16,3.16,0,0,0-2.8-1.6c-2.5,0-3.91,2-3.91,4.69,0,2.24.93,5.24,4.13,5.24A2.83,2.83,0,0,0,587,77.56h0v1.29h1.49Zm-10.86,0h-1.74V78.85h1.74Z" fill="#fff"/><path d="M677.79,78.87h1c0,.85-.2,1.74-1,1.81v.83c.36-.05,1.87-.34,1.87-2.79V77h-1.87Zm-9.42-5.46a2.75,2.75,0,0,1,2.6-2.8c1.92,0,2.53,1.34,2.62,2.8Zm5.15,2.49a2.37,2.37,0,0,1-2.42,1.85c-1.82,0-2.73-1.13-2.73-3.08h6.86c0-3.33-1.33-5.48-4-5.48-3.11,0-4.51,2.32-4.51,5.22,0,2.72,1.56,4.71,4.2,4.71a3.91,3.91,0,0,0,4.22-3.22Zm-8.22-5.13V69.46h-1.5V66.84h-1.59v2.62h-1.27v1.31h1.27V77c0,1.14.35,2,1.91,2,.16,0,.61-.07,1.18-.13V77.61h-.55c-.33,0-1,0-1-.73V70.77Zm-8,4.83c0,1.26-1.44,2.21-2.91,2.21a1.49,1.49,0,0,1-1.71-1.64c0-1.18,1.24-1.41,2-1.52,2-.25,2.36-.4,2.61-.59ZM653,72.31a1.87,1.87,0,0,1,2.16-1.81c1.49,0,2.2.54,2.2,1.53s-.44,1.07-.82,1.11l-2.61.32c-2.62.33-2.85,2.16-2.85,3A2.71,2.71,0,0,0,654,79.12a4.25,4.25,0,0,0,3.4-1.53c.05.72.27,1.44,1.67,1.44a2.67,2.67,0,0,0,.86-.18V77.7a2.67,2.67,0,0,1-.52.07c-.32,0-.52-.16-.52-.55V71.81c0-2.41-2.73-2.62-3.48-2.62-2.32,0-3.81.88-3.88,3.12Zm-10.43,1.1a2.75,2.75,0,0,1,2.61-2.8c1.92,0,2.53,1.34,2.62,2.8Zm5.16,2.49a2.39,2.39,0,0,1-2.43,1.85c-1.81,0-2.73-1.13-2.73-3.08h6.86c0-3.33-1.32-5.48-4-5.48-3.1,0-4.5,2.32-4.5,5.22,0,2.72,1.56,4.71,4.2,4.71a4,4,0,0,0,2.55-.65,4.11,4.11,0,0,0,1.67-2.57Zm-10.86-2.51a2.39,2.39,0,0,1,2.41-2.51h.59V69.24a1.53,1.53,0,0,0-.41,0A3,3,0,0,0,636.81,71h0V69.46h-1.49v9.39h1.58Zm-3.66-.77a3.38,3.38,0,0,0-3.52-3.43c-3.1,0-4.5,2.32-4.5,5.22,0,2.72,1.56,4.71,4.2,4.71a3.7,3.7,0,0,0,3.82-3.59h-1.52a2.39,2.39,0,0,1-2.25,2.22c-2.17,0-2.57-2-2.57-3.61s.63-3.53,2.59-3.53a2.09,2.09,0,0,1,2.23,2Z" fill="#fff"/><path d="M738.85,72.13c0-.46-.23-2.94-3.59-2.94-1.85,0-3.56.93-3.56,3,0,1.29.87,2,2.18,2.28l1.83.45c1.35.34,1.87.59,1.87,1.34,0,1-1,1.49-2.16,1.49-2.23,0-2.44-1.18-2.5-1.92H731.4c.05,1.13.32,3.29,4,3.29,2.12,0,3.72-1.17,3.72-3.11,0-1.27-.69-2-2.64-2.48l-1.58-.39c-1.22-.31-1.71-.49-1.71-1.26,0-1.16,1.38-1.33,1.87-1.33,2,0,2.21,1,2.22,1.58ZM723,73.41a2.75,2.75,0,0,1,2.61-2.8c1.92,0,2.53,1.34,2.62,2.8Zm5.16,2.49a2.38,2.38,0,0,1-2.43,1.85c-1.81,0-2.73-1.13-2.73-3.08h6.86c0-3.33-1.32-5.48-4-5.48-3.1,0-4.5,2.32-4.5,5.22,0,2.72,1.56,4.71,4.2,4.71a4,4,0,0,0,2.55-.65,4.11,4.11,0,0,0,1.67-2.57Zm-9,2.95V69.46h-1.58v5.17c0,1.36-.59,3.12-2.58,3.12-1,0-1.82-.52-1.82-2.06V69.46h-1.58v6.75a2.77,2.77,0,0,0,3.06,2.91,3.11,3.11,0,0,0,3-1.67l0,0v1.36ZM708.81,66h-1.58V78.85h1.58Zm-6.15,9.64c0,1.26-1.44,2.21-2.91,2.21A1.49,1.49,0,0,1,698,76.17c0-1.18,1.24-1.41,2-1.52,2-.25,2.35-.4,2.61-.59Zm-4.33-3.29a1.87,1.87,0,0,1,2.15-1.81c1.49,0,2.21.54,2.21,1.53s-.45,1.07-.82,1.11l-2.61.32c-2.62.33-2.85,2.16-2.85,3a2.71,2.71,0,0,0,2.94,2.71,4.29,4.29,0,0,0,3.4-1.53c0,.72.26,1.44,1.67,1.44a2.73,2.73,0,0,0,.86-.18V77.7a2.67,2.67,0,0,1-.52.07c-.33,0-.52-.16-.52-.55V71.81c0-2.41-2.73-2.62-3.49-2.62-2.31,0-3.81.88-3.88,3.12ZM691,77.11h0l-2.45-7.65h-1.83l3.43,9.39h1.69l3.58-9.39h-1.73Z" fill="#fff"/><path d="M801.3,70.77V69.46h-1.51V66.84h-1.58v2.62h-1.28v1.31h1.28V77c0,1.14.34,2,1.9,2,.16,0,.61-.07,1.19-.13V77.61h-.56c-.32,0-1,0-1-.73V70.77ZM796,72.62a3.39,3.39,0,0,0-3.52-3.43c-3.11,0-4.51,2.32-4.51,5.22,0,2.72,1.56,4.71,4.2,4.71A3.71,3.71,0,0,0,796,75.53h-1.53a2.39,2.39,0,0,1-2.24,2.22c-2.18,0-2.57-2-2.57-3.61s.63-3.53,2.59-3.53a2.08,2.08,0,0,1,2.22,2Zm-16.43.79a2.75,2.75,0,0,1,2.61-2.8c1.92,0,2.53,1.34,2.62,2.8Zm5.16,2.49a2.39,2.39,0,0,1-2.43,1.85c-1.81,0-2.73-1.13-2.73-3.08h6.86c0-3.33-1.32-5.48-4-5.48-3.1,0-4.5,2.32-4.5,5.22,0,2.72,1.56,4.71,4.2,4.71a4,4,0,0,0,2.55-.65,4.11,4.11,0,0,0,1.67-2.57Zm-8.22-5.13V69.46H775V66.84h-1.58v2.62h-1.27v1.31h1.27V77c0,1.14.34,2,1.9,2,.17,0,.61-.07,1.19-.13V77.61h-.56c-.32,0-1,0-1-.73V70.77Zm-12.62,3.37c0-1.25.47-3.59,2.73-3.59s2.73,2.34,2.73,3.59-.47,3.6-2.73,3.6S763.88,75.4,763.88,74.14Zm-1.63,0c0,2.43,1.36,5,4.36,5s4.36-2.53,4.36-5-1.36-5-4.36-5S762.25,71.72,762.25,74.14Zm-3.93-.75a2.39,2.39,0,0,1,2.41-2.51h.59V69.24a1.53,1.53,0,0,0-.41,0A3,3,0,0,0,758.27,71h0V69.46h-1.49v9.39h1.58Zm-12.19,9.18h1.58V77.86h0a2.81,2.81,0,0,0,2.5,1.26c3.19,0,4.13-3,4.13-5.24,0-2.64-1.42-4.69-3.92-4.69a3.18,3.18,0,0,0-2.8,1.6h0V69.46h-1.49Zm1.51-8c0-1.52.25-4,2.53-4,2.45,0,2.57,2.31,2.57,3.52,0,2.06-.81,3.62-2.53,3.62C749.2,77.75,747.64,77.09,747.64,74.59Z" fill="#fff"/><path d="M859.92,51a.31.31,0,0,1,0,.17.36.36,0,0,1-.18.12,1.73,1.73,0,0,1-.32.07,2.43,2.43,0,0,1-.52,0,2.47,2.47,0,0,1-.5,0,1.68,1.68,0,0,1-.33-.07.32.32,0,0,1-.17-.12.31.31,0,0,1-.05-.17V37.15h0l-5.63,14a.4.4,0,0,1-.1.15.62.62,0,0,1-.2.11l-.31.06-.42,0a3,3,0,0,1-.45,0,1.67,1.67,0,0,1-.3-.07.62.62,0,0,1-.2-.1.42.42,0,0,1-.09-.14l-5.37-14h0V51a.25.25,0,0,1-.05.17.32.32,0,0,1-.17.12,2.09,2.09,0,0,1-.33.07,2.55,2.55,0,0,1-.52,0,2.39,2.39,0,0,1-.51,0,1.68,1.68,0,0,1-.33-.07.3.3,0,0,1-.16-.12.31.31,0,0,1,0-.17V36.37a.88.88,0,0,1,.28-.74.94.94,0,0,1,.61-.22h1.3a3,3,0,0,1,.71.07,1.46,1.46,0,0,1,.52.24,1.32,1.32,0,0,1,.38.4,3.48,3.48,0,0,1,.26.58l4.56,11.55h.06L856,36.74a3.09,3.09,0,0,1,.3-.63,1.63,1.63,0,0,1,.36-.41,1.17,1.17,0,0,1,.43-.22,1.84,1.84,0,0,1,.55-.07H859a1.34,1.34,0,0,1,.35.05.71.71,0,0,1,.29.18.77.77,0,0,1,.19.29,1,1,0,0,1,.08.44Z" fill="#fff"/><path d="M876.16,45.47a7.21,7.21,0,0,1-.43,2.59A5.29,5.29,0,0,1,874.52,50a5.09,5.09,0,0,1-1.93,1.2,7.57,7.57,0,0,1-2.57.41,7.12,7.12,0,0,1-2.41-.39,5.15,5.15,0,0,1-1.86-1.12,4.81,4.81,0,0,1-1.19-1.87,7.37,7.37,0,0,1-.42-2.59v-9.9a.25.25,0,0,1,.05-.17.32.32,0,0,1,.17-.12l.32-.08a3.54,3.54,0,0,1,.52,0,3.63,3.63,0,0,1,.5,0,2.68,2.68,0,0,1,.33.08.37.37,0,0,1,.17.12.31.31,0,0,1,0,.17v9.64a6,6,0,0,0,.28,1.94,3.67,3.67,0,0,0,.78,1.37,3.27,3.27,0,0,0,1.23.83,4.59,4.59,0,0,0,1.62.27,4.68,4.68,0,0,0,1.65-.27A3.11,3.11,0,0,0,873,48.7a3.55,3.55,0,0,0,.76-1.35,5.81,5.81,0,0,0,.27-1.87V35.73a.31.31,0,0,1,.05-.17.32.32,0,0,1,.17-.12,2.68,2.68,0,0,1,.33-.08,3.49,3.49,0,0,1,.51,0,3.53,3.53,0,0,1,.5,0,3,3,0,0,1,.32.08.37.37,0,0,1,.17.12.25.25,0,0,1,.06.17Z" fill="#fff"/><path d="M890.36,36.32a2.46,2.46,0,0,1,0,.41.62.62,0,0,1-.08.27.35.35,0,0,1-.13.16.35.35,0,0,1-.18.05h-4.49V51a.25.25,0,0,1-.05.17.32.32,0,0,1-.17.12,1.68,1.68,0,0,1-.33.07,2.39,2.39,0,0,1-.51,0,2.47,2.47,0,0,1-.5,0,2,2,0,0,1-.34-.07.32.32,0,0,1-.17-.12.31.31,0,0,1,0-.17V37.21h-4.49a.34.34,0,0,1-.17-.05.3.3,0,0,1-.13-.16.79.79,0,0,1-.08-.27,2.12,2.12,0,0,1,0-.82.92.92,0,0,1,.08-.29.27.27,0,0,1,.13-.16.34.34,0,0,1,.17-.05h11.1a.35.35,0,0,1,.18.05.31.31,0,0,1,.13.16.72.72,0,0,1,.08.29A2.46,2.46,0,0,1,890.36,36.32Z" fill="#fff"/><path d="M904.66,45.47a7.44,7.44,0,0,1-.42,2.59A5.31,5.31,0,0,1,903,50a5.13,5.13,0,0,1-1.92,1.2,7.67,7.67,0,0,1-2.58.41,7,7,0,0,1-2.4-.39,4.84,4.84,0,0,1-3.06-3,7.37,7.37,0,0,1-.42-2.59v-9.9a.31.31,0,0,1,.05-.17.32.32,0,0,1,.17-.12l.32-.08a3.64,3.64,0,0,1,.52,0,3.68,3.68,0,0,1,.51,0,2.45,2.45,0,0,1,.32.08.32.32,0,0,1,.17.12.31.31,0,0,1,0,.17v9.64a6.27,6.27,0,0,0,.27,1.94,3.67,3.67,0,0,0,.78,1.37,3.23,3.23,0,0,0,1.24.83,4.59,4.59,0,0,0,1.62.27,4.66,4.66,0,0,0,1.64-.27,3.11,3.11,0,0,0,1.22-.81,3.57,3.57,0,0,0,.77-1.35,6.12,6.12,0,0,0,.26-1.87V35.73a.31.31,0,0,1,.05-.17.32.32,0,0,1,.18-.12l.32-.08a3.68,3.68,0,0,1,.51,0,3.43,3.43,0,0,1,.5,0,2.45,2.45,0,0,1,.32.08.41.41,0,0,1,.18.12.31.31,0,0,1,0,.17Z" fill="#fff"/><path d="M920.26,50.61a1.27,1.27,0,0,1,.1.44.27.27,0,0,1-.09.25.57.57,0,0,1-.32.11,5.11,5.11,0,0,1-.62,0l-.61,0-.34-.06a.32.32,0,0,1-.17-.12.68.68,0,0,1-.11-.19l-1.37-3.88H910.1L908.79,51a.61.61,0,0,1-.09.2.83.83,0,0,1-.18.13,1.13,1.13,0,0,1-.34.08,4.17,4.17,0,0,1-.56,0,3.09,3.09,0,0,1-.58,0,.62.62,0,0,1-.32-.11.31.31,0,0,1-.09-.26,1.5,1.5,0,0,1,.1-.43l5.36-14.82a.57.57,0,0,1,.12-.22.57.57,0,0,1,.24-.14,1.71,1.71,0,0,1,.39-.07l.61,0,.66,0a2,2,0,0,1,.42.07.51.51,0,0,1,.24.14.59.59,0,0,1,.14.23Zm-6.87-13.08h0l-2.75,7.95h5.55Z" fill="#fff"/><path d="M931.2,50.44a2.37,2.37,0,0,1,0,.41.93.93,0,0,1-.08.28.44.44,0,0,1-.14.18.36.36,0,0,1-.19,0h-7a.87.87,0,0,1-.54-.19.82.82,0,0,1-.25-.67V35.73a.31.31,0,0,1,.05-.17.32.32,0,0,1,.17-.12l.34-.08a3.53,3.53,0,0,1,.5,0,3.49,3.49,0,0,1,.51,0,2.68,2.68,0,0,1,.33.08.32.32,0,0,1,.17.12.25.25,0,0,1,0,.17V49.52h5.72a.29.29,0,0,1,.19.06.44.44,0,0,1,.14.16.85.85,0,0,1,.08.28A2.42,2.42,0,0,1,931.2,50.44Z" fill="#fff"/><path d="M851,63.76a2.33,2.33,0,0,1,0,.4.66.66,0,0,1-.08.28.43.43,0,0,1-.15.15.24.24,0,0,1-.16,0h-5.85v5.43h5.53a.32.32,0,0,1,.16,0,.49.49,0,0,1,.15.14.66.66,0,0,1,.08.27,2.42,2.42,0,0,1,0,.42,2.25,2.25,0,0,1,0,.4.62.62,0,0,1-.08.27.63.63,0,0,1-.15.17.33.33,0,0,1-.16,0h-5.53v6.65a.25.25,0,0,1-.05.16.29.29,0,0,1-.17.13l-.32.07a3.54,3.54,0,0,1-.52,0,3.63,3.63,0,0,1-.5,0l-.33-.07a.31.31,0,0,1-.18-.13.33.33,0,0,1,0-.16V63.71a.81.81,0,0,1,.26-.68.88.88,0,0,1,.53-.19h7.18a.3.3,0,0,1,.16,0,.58.58,0,0,1,.15.16.77.77,0,0,1,.08.29A2.58,2.58,0,0,1,851,63.76Z" fill="#fff"/><path d="M866.17,72.9a7.5,7.5,0,0,1-.42,2.6,5.39,5.39,0,0,1-1.22,1.93,5.24,5.24,0,0,1-1.92,1.19A7.67,7.67,0,0,1,860,79a7.28,7.28,0,0,1-2.4-.38,5,5,0,0,1-1.86-1.13,4.94,4.94,0,0,1-1.2-1.87,7.37,7.37,0,0,1-.42-2.59v-9.9a.34.34,0,0,1,.05-.17.32.32,0,0,1,.17-.12,1.73,1.73,0,0,1,.32-.07,3.64,3.64,0,0,1,.52,0,3.68,3.68,0,0,1,.51,0,1.56,1.56,0,0,1,.32.07.32.32,0,0,1,.17.12.34.34,0,0,1,0,.17V72.8a6.27,6.27,0,0,0,.27,1.94,3.59,3.59,0,0,0,.78,1.37,3.12,3.12,0,0,0,1.24.83,4.37,4.37,0,0,0,1.62.28,4.66,4.66,0,0,0,1.64-.27,3.13,3.13,0,0,0,1.22-.82,3.6,3.6,0,0,0,.77-1.34,6.16,6.16,0,0,0,.26-1.87V63.16a.34.34,0,0,1,.05-.17.32.32,0,0,1,.17-.12,2.09,2.09,0,0,1,.33-.07,3.68,3.68,0,0,1,.51,0,3.43,3.43,0,0,1,.5,0,1.56,1.56,0,0,1,.32.07.41.41,0,0,1,.18.12.34.34,0,0,1,0,.17Z" fill="#fff"/><path d="M882.43,77.92a1,1,0,0,1-.08.42.78.78,0,0,1-.22.28.73.73,0,0,1-.3.16,1,1,0,0,1-.33,0h-.7a2.52,2.52,0,0,1-.58-.06,1.34,1.34,0,0,1-.47-.25,2.42,2.42,0,0,1-.45-.49,5.31,5.31,0,0,1-.47-.79L874,68.17c-.25-.47-.51-1-.77-1.47s-.5-1-.72-1.5h0c0,.59,0,1.19,0,1.81s0,1.23,0,1.84v9.63a.25.25,0,0,1,0,.16.29.29,0,0,1-.17.13l-.33.07a3.49,3.49,0,0,1-.51,0,3.74,3.74,0,0,1-.52,0l-.31-.07a.29.29,0,0,1-.17-.13.27.27,0,0,1-.06-.16V63.76a.85.85,0,0,1,.28-.71,1,1,0,0,1,.62-.21h1a2.77,2.77,0,0,1,.62.06,1.38,1.38,0,0,1,.44.21,1.57,1.57,0,0,1,.38.39,4.86,4.86,0,0,1,.39.64l3.74,7,.67,1.25.62,1.2c.2.4.39.79.59,1.17l.58,1.15h0c0-.65,0-1.32,0-2s0-1.38,0-2V63.2a.3.3,0,0,1,.05-.16.52.52,0,0,1,.18-.13,1.14,1.14,0,0,1,.32-.08,4,4,0,0,1,.53,0,3.78,3.78,0,0,1,.5,0,1.14,1.14,0,0,1,.32.08.48.48,0,0,1,.17.13.3.3,0,0,1,0,.16Z" fill="#fff"/><path d="M898.94,70.59a11.21,11.21,0,0,1-.53,3.61,6.22,6.22,0,0,1-4,4.09,10.91,10.91,0,0,1-3.53.51h-3.38a.88.88,0,0,1-.53-.19.81.81,0,0,1-.26-.68V63.71a.81.81,0,0,1,.26-.68.88.88,0,0,1,.53-.19h3.61a10,10,0,0,1,3.51.54A6.37,6.37,0,0,1,897,64.92a6.46,6.46,0,0,1,1.47,2.44A9.82,9.82,0,0,1,898.94,70.59Zm-2.23.08a8.88,8.88,0,0,0-.32-2.41,5.23,5.23,0,0,0-1-1.93,4.67,4.67,0,0,0-1.73-1.27,6.91,6.91,0,0,0-2.7-.45h-2.16V77H891a7.7,7.7,0,0,0,2.57-.38,4.36,4.36,0,0,0,1.75-1.17,5.22,5.22,0,0,0,1.06-2A10.15,10.15,0,0,0,896.71,70.67Z" fill="#fff"/><path d="M522.26,6.24a4,4,0,0,1-1.48,3.34,6.7,6.7,0,0,1-4.23,1.16h-1.68v5.62h-1.66V2.08h3.7C520.47,2.08,522.26,3.47,522.26,6.24Zm-7.39,3.08h1.49a5.57,5.57,0,0,0,3.19-.71,2.64,2.64,0,0,0,1-2.29,2.46,2.46,0,0,0-.93-2.11,4.86,4.86,0,0,0-2.89-.69h-1.85Z" fill="#fff"/><path d="M529.91,5.46a6.09,6.09,0,0,1,1.27.12L531,7.08a5.28,5.28,0,0,0-1.17-.14,2.84,2.84,0,0,0-2.22,1,3.83,3.83,0,0,0-.93,2.63v5.74H525V5.66h1.34l.19,2h.07A4.64,4.64,0,0,1,528.06,6,3.21,3.21,0,0,1,529.91,5.46Z" fill="#fff"/><path d="M537.73,16.55A5,5,0,0,1,534,15.11a5.6,5.6,0,0,1-1.37-4A6.23,6.23,0,0,1,533.89,7a4.25,4.25,0,0,1,3.42-1.52,4,4,0,0,1,3.18,1.32,5.11,5.11,0,0,1,1.17,3.5v1h-7.37a4.23,4.23,0,0,0,1,2.86,3.31,3.31,0,0,0,2.55,1,8.6,8.6,0,0,0,3.41-.72v1.44a7.82,7.82,0,0,1-1.62.53A9,9,0,0,1,537.73,16.55Zm-.44-9.73a2.65,2.65,0,0,0-2.06.84,3.86,3.86,0,0,0-.9,2.32h5.6a3.56,3.56,0,0,0-.69-2.35A2.39,2.39,0,0,0,537.29,6.82Z" fill="#fff"/><path d="M551.35,13.44a2.67,2.67,0,0,1-1.11,2.3,5.25,5.25,0,0,1-3.13.81,6.8,6.8,0,0,1-3.32-.67v-1.5a8.21,8.21,0,0,0,1.66.61,6.93,6.93,0,0,0,1.7.23,3.89,3.89,0,0,0,2-.41,1.39,1.39,0,0,0,.14-2.3,8.28,8.28,0,0,0-2.12-1,12,12,0,0,1-2.12-1,3,3,0,0,1-.94-1,2.5,2.5,0,0,1-.31-1.26,2.39,2.39,0,0,1,1.07-2.06,4.92,4.92,0,0,1,2.92-.76,8.71,8.71,0,0,1,3.38.7l-.58,1.32a7.79,7.79,0,0,0-2.92-.66,3.37,3.37,0,0,0-1.74.36,1.11,1.11,0,0,0-.58,1,1.19,1.19,0,0,0,.22.73,2.1,2.1,0,0,0,.7.57,15.08,15.08,0,0,0,1.88.8,6.89,6.89,0,0,1,2.57,1.39A2.45,2.45,0,0,1,551.35,13.44Z" fill="#fff"/><path d="M558.53,16.55a5,5,0,0,1-3.75-1.44,5.6,5.6,0,0,1-1.37-4A6.23,6.23,0,0,1,554.69,7a4.25,4.25,0,0,1,3.42-1.52,4,4,0,0,1,3.18,1.32,5.06,5.06,0,0,1,1.18,3.5v1h-7.38a4.23,4.23,0,0,0,.95,2.86,3.31,3.31,0,0,0,2.55,1,8.68,8.68,0,0,0,3.42-.72v1.44a8.1,8.1,0,0,1-1.63.53A9,9,0,0,1,558.53,16.55Zm-.44-9.73a2.67,2.67,0,0,0-2.06.84,3.86,3.86,0,0,0-.9,2.32h5.6A3.56,3.56,0,0,0,560,7.63,2.39,2.39,0,0,0,558.09,6.82Z" fill="#fff"/><path d="M572.57,16.36V9.44a2.83,2.83,0,0,0-.59-2,2.43,2.43,0,0,0-1.87-.64,3.06,3.06,0,0,0-2.46.91,4.56,4.56,0,0,0-.78,3v5.62h-1.62V5.66h1.32l.26,1.46h.08a3.27,3.27,0,0,1,1.4-1.22,4.49,4.49,0,0,1,2-.44,4.07,4.07,0,0,1,2.91.93,4,4,0,0,1,1,3v7Z" fill="#fff"/><path d="M581,15.22a6.39,6.39,0,0,0,1.47-.2v1.24a2.68,2.68,0,0,1-.78.21,5.28,5.28,0,0,1-.92.08q-3.1,0-3.11-3.27V6.92h-1.53V6.13l1.53-.67.69-2.28h.93V5.66h3.11V6.92h-3.11v6.3a2.2,2.2,0,0,0,.46,1.48A1.63,1.63,0,0,0,581,15.22Z" fill="#fff"/><path d="M589.15,16.55a4.93,4.93,0,0,1-3.75-1.44,5.6,5.6,0,0,1-1.37-4A6.23,6.23,0,0,1,585.3,7a4.25,4.25,0,0,1,3.43-1.52,4,4,0,0,1,3.18,1.32,5.11,5.11,0,0,1,1.17,3.5v1h-7.37a4.23,4.23,0,0,0,.95,2.86,3.29,3.29,0,0,0,2.54,1,8.61,8.61,0,0,0,3.42-.72v1.44a7.82,7.82,0,0,1-1.62.53A9,9,0,0,1,589.15,16.55Zm-.44-9.73a2.65,2.65,0,0,0-2.06.84,3.86,3.86,0,0,0-.9,2.32h5.59a3.56,3.56,0,0,0-.68-2.35A2.42,2.42,0,0,0,588.71,6.82Z" fill="#fff"/><path d="M603.15,14.92h-.09a3.79,3.79,0,0,1-3.36,1.63,4,4,0,0,1-3.26-1.43A6.31,6.31,0,0,1,595.27,11a6.41,6.41,0,0,1,1.17-4.11,3.94,3.94,0,0,1,3.26-1.47A3.89,3.89,0,0,1,603,7h.13l-.07-.77,0-.75V1.16h1.62v15.2h-1.31Zm-3.24.28a2.93,2.93,0,0,0,2.41-.91,4.6,4.6,0,0,0,.74-2.91V11a5.42,5.42,0,0,0-.75-3.25,2.88,2.88,0,0,0-2.42-1,2.47,2.47,0,0,0-2.18,1.11,5.46,5.46,0,0,0-.76,3.13,5.28,5.28,0,0,0,.75,3.09A2.55,2.55,0,0,0,599.91,15.2Z" fill="#fff"/><path d="M618.34,5.48a4,4,0,0,1,3.27,1.44A6.31,6.31,0,0,1,622.78,11a6.31,6.31,0,0,1-1.18,4.09,3.93,3.93,0,0,1-3.26,1.46,4.56,4.56,0,0,1-1.91-.38A3.54,3.54,0,0,1,615,15h-.12l-.34,1.38h-1.16V1.16H615v3.7c0,.82,0,1.56-.08,2.22H615A3.83,3.83,0,0,1,618.34,5.48Zm-.24,1.36a2.85,2.85,0,0,0-2.39,1A5.37,5.37,0,0,0,615,11a5.39,5.39,0,0,0,.75,3.23,2.88,2.88,0,0,0,2.41,1,2.52,2.52,0,0,0,2.23-1.09A5.59,5.59,0,0,0,621.1,11a5.4,5.4,0,0,0-.73-3.12A2.6,2.6,0,0,0,618.1,6.84Z" fill="#fff"/><path d="M623.93,5.66h1.74l2.35,6.1a22.76,22.76,0,0,1,1,3h.08c.09-.33.26-.9.53-1.71s1.16-3.27,2.65-7.41H634l-4.6,12.18a6.13,6.13,0,0,1-1.59,2.57,3.43,3.43,0,0,1-2.25.75,6.53,6.53,0,0,1-1.46-.16V19.7a5.54,5.54,0,0,0,1.2.12,2.48,2.48,0,0,0,2.38-1.88l.6-1.52Z" fill="#fff"/><path d="M110.24,23.29a10.08,10.08,0,0,1,3.23.56,11.5,11.5,0,0,1,3.08,1.62A10.9,10.9,0,0,1,119,28a8.1,8.1,0,0,1,1.32,3.14,16.28,16.28,0,0,1,0,5.74,16.64,16.64,0,0,1-1.55,4.59A16.2,16.2,0,0,1,116.28,45a22.26,22.26,0,0,1-2.67,2.47,23.52,23.52,0,0,1-2.15,1.49,8.94,8.94,0,0,1-1,.53,10,10,0,0,1-5.22,1.65,14.34,14.34,0,0,1-5.21-.83,19.06,19.06,0,0,1-4.73-2.47,22.83,22.83,0,0,1-3.79-3.37V21.18H89.1l-3.3-5.81h5.75c0-1.54,0-3-.14-4.43-.08-1.19-.22-2.38-.39-3.57a11.71,11.71,0,0,0-.73-2.84,6.61,6.61,0,0,0-.5-.85l-.42-.6a1.9,1.9,0,0,1-.4-.53l.46-.92a15.49,15.49,0,0,1,2.12,1.06,18,18,0,0,1,2,1.51,10.78,10.78,0,0,1,2,2.45A14.27,14.27,0,0,1,97,10.58a25.55,25.55,0,0,1,.5,4.79h24.77l3.3,5.81H97.49v8.59l1.62-1.32a33,33,0,0,1,3.07-2.22,25.63,25.63,0,0,1,3.9-2.05A10.67,10.67,0,0,1,110.24,23.29ZM97.49,42.05c1.5,2.55,3.09,4.14,4.79,4.76a6.61,6.61,0,0,0,4.89,0,10.51,10.51,0,0,0,4.22-3.3,16.15,16.15,0,0,0,2.78-5,10.44,10.44,0,0,0,.49-5.08,5,5,0,0,0-2.51-3.7,6.55,6.55,0,0,0-1.91-.73,5.27,5.27,0,0,0-2.54.3,20.51,20.51,0,0,0-4,1.95,72.87,72.87,0,0,0-6.21,4.29Z" fill="#fff"/><path d="M146.37,23.29a9.85,9.85,0,0,1,3.2.56,10.9,10.9,0,0,1,3,1.62A11.86,11.86,0,0,1,155,28a8.77,8.77,0,0,1,1.42,3.14A13,13,0,0,1,156.7,35a13.83,13.83,0,0,1-.95,3.67,48.45,48.45,0,0,1-2.25,4.69Q152,46,149.93,50.18a4.17,4.17,0,0,1-2.37-.86,3.31,3.31,0,0,1-1-2,6.23,6.23,0,0,1,1-3.69,36.16,36.16,0,0,0,1.95-4.49,15.76,15.76,0,0,0,.89-4,8.07,8.07,0,0,0-.36-3.27,3.79,3.79,0,0,0-1.82-2.15,8.3,8.3,0,0,0-1.81-.79,4.63,4.63,0,0,0-2-.1,8.55,8.55,0,0,0-2.54.86,21.4,21.4,0,0,0-3.34,2.14l-4.95,3.7V50.18l-6-5.75V21.18h-2.44l-3.3-5.81h5.74c0-1.54,0-3-.13-4.43q-.14-1.78-.39-3.57a11.71,11.71,0,0,0-.73-2.84,6.61,6.61,0,0,0-.5-.85l-.42-.6a1.9,1.9,0,0,1-.4-.53l.46-.92a15.41,15.41,0,0,1,2.11,1.06,17.17,17.17,0,0,1,2,1.51,10.78,10.78,0,0,1,2,2.45,14.27,14.27,0,0,1,1.48,3.93,26.41,26.41,0,0,1,.5,4.79h24.77l3.3,5.81H133.62v8.59l1.62-1.32a33,33,0,0,1,3.07-2.22,25.52,25.52,0,0,1,3.89-2.05A10.76,10.76,0,0,1,146.37,23.29Z" fill="#fff"/><path d="M182.56,23.49a17.08,17.08,0,0,1,3,1.22,12.69,12.69,0,0,1,2.54,1.72,7.91,7.91,0,0,1,1.72,2.08,4.57,4.57,0,0,1,.63,2.25V50.24l-5.29-4.09a12.35,12.35,0,0,1-3.1,2.18,19.63,19.63,0,0,1-4.16,1.55,22.27,22.27,0,0,1-4.66.63,16.05,16.05,0,0,1-4.59-.53,11.94,11.94,0,0,1-4-1.92,8.79,8.79,0,0,1-2.78-3.5,7.26,7.26,0,0,1-.69-4.62,9.56,9.56,0,0,1,1.91-4.2,11.65,11.65,0,0,1,3.9-3.1,13.17,13.17,0,0,1,5.29-1.39,15.52,15.52,0,0,1,6,.93A18.4,18.4,0,0,1,184.54,36V30.82a3.21,3.21,0,0,0-2.08-2.94,8.08,8.08,0,0,0-5.05-.49c-1.41.22-2.53.42-3.37.59s-1.63.39-2.38.63-1.56.54-2.44.89-2.07.82-3.57,1.39l-1.45-3.3c1.49-.62,3-1.21,4.42-1.79,1.28-.48,2.64-1,4.07-1.45a38.1,38.1,0,0,1,3.93-1.12.54.54,0,0,1,.29-.07.6.6,0,0,0,.3-.07V21.18H160.57l-3.31-5.81h36.46l3.3,5.81H182.56Zm2,16.45A18.74,18.74,0,0,0,179.13,37a15.17,15.17,0,0,0-5.29-.89,8.43,8.43,0,0,0-4.23,1.15,4.84,4.84,0,0,0-2.24,3.21,4.93,4.93,0,0,0,.26,3.63A4.21,4.21,0,0,0,170,46a9.39,9.39,0,0,0,3.63.39,19.51,19.51,0,0,0,4.16-.72,25,25,0,0,0,3.9-1.46,12.17,12.17,0,0,0,2.87-1.78Z" fill="#fff"/><path d="M215.85,23.29a5.17,5.17,0,0,1,1.62,1.16,21.07,21.07,0,0,1,1.65,1.88c.55.71,1,1.43,1.52,2.18s.87,1.43,1.22,2l-4.36,4.69c-.26-.44-.59-.94-1-1.49a12.39,12.39,0,0,0-1.26-1.48,6.4,6.4,0,0,0-1.35-1.06,1.81,1.81,0,0,0-1.29-.27c-.4.14-1,.39-1.78.76s-1.65.82-2.58,1.32-1.85,1-2.77,1.59-1.72,1.05-2.38,1.49V50.18l-5.94-5.75V21.18h-2.45l-3.3-5.81h30.38l3.3,5.81h-22V32.54l6.54-5.68c.35-.31.79-.7,1.32-1.19a15.24,15.24,0,0,1,1.68-1.32,10.25,10.25,0,0,1,1.76-1A1.83,1.83,0,0,1,215.85,23.29Z" fill="#fff"/><path d="M245.44,23.49a17.39,17.39,0,0,1,3,1.22A13.29,13.29,0,0,1,251,26.43a7.91,7.91,0,0,1,1.72,2.08,4.66,4.66,0,0,1,.62,2.25V50.24l-5.28-4.09a12.54,12.54,0,0,1-3.1,2.18,19.51,19.51,0,0,1-4.17,1.55,22.09,22.09,0,0,1-4.65.63,16.05,16.05,0,0,1-4.59-.53,12,12,0,0,1-4-1.92,8.86,8.86,0,0,1-2.77-3.5,7.26,7.26,0,0,1-.69-4.62,9.45,9.45,0,0,1,1.91-4.2,11.46,11.46,0,0,1,3.9-3.1,13.16,13.16,0,0,1,5.28-1.39,15.46,15.46,0,0,1,6,.93A18.43,18.43,0,0,1,247.42,36V30.82a3.21,3.21,0,0,0-2.08-2.94,8.09,8.09,0,0,0-5.05-.49c-1.41.22-2.54.42-3.37.59s-1.63.39-2.38.63-1.56.54-2.44.89-2.07.82-3.57,1.39l-1.45-3.3c1.49-.62,3-1.21,4.42-1.79,1.28-.48,2.63-1,4.06-1.45a38.82,38.82,0,0,1,3.93-1.12.6.6,0,0,1,.3-.07.6.6,0,0,0,.3-.07V21.18H223.44l-3.3-5.81H256.6l3.3,5.81H245.44Zm2,16.45A18.66,18.66,0,0,0,242,37a15.08,15.08,0,0,0-5.28-.89,8.43,8.43,0,0,0-4.23,1.15,4.81,4.81,0,0,0-2.24,3.21,4.88,4.88,0,0,0,.26,3.63A4.21,4.21,0,0,0,232.86,46a9.39,9.39,0,0,0,3.63.39,19.51,19.51,0,0,0,4.16-.72,25,25,0,0,0,3.9-1.46,12.17,12.17,0,0,0,2.87-1.78Z" fill="#fff"/><path d="M279.19,42.65a7.28,7.28,0,0,1-.63,3.26,7.93,7.93,0,0,1-1.88,2.65,6.69,6.69,0,0,1-2.81,1.52,6,6,0,0,1-3.33-.1,8.19,8.19,0,0,1-2.81-1.52c-.86-.71-1.66-1.43-2.41-2.18-.57-.57-1.11-1.16-1.62-1.75s-1-1.22-1.49-1.88a7.68,7.68,0,0,1-1.71-4.89l-.07-12.68v-3.9h-4l-3.3-5.81h7.26c0-1.54,0-3-.13-4.43-.09-1.19-.22-2.38-.4-3.57a11.75,11.75,0,0,0-.72-2.84,8,8,0,0,0-.5-.85c-.15-.22-.3-.42-.43-.6a1.68,1.68,0,0,1-.39-.53l.46-.92a15.41,15.41,0,0,1,2.11,1.06,16.32,16.32,0,0,1,2,1.51,10.52,10.52,0,0,1,2,2.45,14.3,14.3,0,0,1,1.49,3.93,26.41,26.41,0,0,1,.5,4.79h11.69l3.3,5.81h-15V43.5a1.18,1.18,0,0,0,1.25,1.13,3.1,3.1,0,0,0,1.82-.43A10.1,10.1,0,0,0,271,43a7.08,7.08,0,0,0,2-2.71,7.74,7.74,0,0,0,.6-3.3c1.05,1.1,2,2,2.77,2.84s1.35,1.36,1.95,2A6.1,6.1,0,0,0,279.19,42.65Z" fill="#fff"/><path d="M293.08,5.29H314.9q6,0,9.68,2.76t3.64,8.36a10,10,0,0,1-1.66,5.82A10.7,10.7,0,0,1,321.81,26v.13A9.74,9.74,0,0,1,328.1,30a13,13,0,0,1,2.14,7.63,12.86,12.86,0,0,1-.95,4.94,10.06,10.06,0,0,1-3,4,14.91,14.91,0,0,1-5.16,2.64,25.32,25.32,0,0,1-7.48,1H293.08Zm7.86,18.79h12.82a7,7,0,0,0,4.72-1.6,5.72,5.72,0,0,0,1.89-4.62q0-3.39-1.7-4.78a7.62,7.62,0,0,0-4.91-1.38H300.94Zm0,19.68h13.9a7.86,7.86,0,0,0,5.56-1.85,6.85,6.85,0,0,0,2-5.25,6.58,6.58,0,0,0-2-5.13,8,8,0,0,0-5.56-1.79h-13.9Z" fill="#fff"/><path d="M351.23,51.06a17.64,17.64,0,0,1-6.94-1.29,14.74,14.74,0,0,1-5.16-3.56,15.3,15.3,0,0,1-3.21-5.4,20.92,20.92,0,0,1-1.1-6.92,20.72,20.72,0,0,1,1.1-6.85,15.34,15.34,0,0,1,3.21-5.41,14.72,14.72,0,0,1,5.16-3.55,19.34,19.34,0,0,1,13.89,0,14.77,14.77,0,0,1,5.15,3.55A15.05,15.05,0,0,1,366.54,27a20.72,20.72,0,0,1,1.1,6.85,20.92,20.92,0,0,1-1.1,6.92,15,15,0,0,1-3.21,5.4,14.8,14.8,0,0,1-5.15,3.56A17.69,17.69,0,0,1,351.23,51.06Zm0-5.66a8.2,8.2,0,0,0,4.15-1,8.62,8.62,0,0,0,2.89-2.64,11.43,11.43,0,0,0,1.67-3.68,16.24,16.24,0,0,0,.53-4.18,16.46,16.46,0,0,0-.53-4.15,11,11,0,0,0-1.67-3.67,8.75,8.75,0,0,0-2.89-2.61,9,9,0,0,0-8.3,0,9,9,0,0,0-2.89,2.61,11,11,0,0,0-1.66,3.67,16.48,16.48,0,0,0-.54,4.15,16.25,16.25,0,0,0,.54,4.18,11.41,11.41,0,0,0,1.66,3.68,8.82,8.82,0,0,0,2.89,2.64A8.26,8.26,0,0,0,351.23,45.4Z" fill="#fff"/><path d="M373.62,17.67h6.78v4.78l.13.13a12,12,0,0,1,4.28-4.25,11.45,11.45,0,0,1,5.84-1.54q5.34,0,8.43,2.77t3.08,8.3V50.18H395V29.74c-.08-2.55-.63-4.41-1.63-5.56a6,6,0,0,0-4.72-1.73,7.76,7.76,0,0,0-3.27.66,7.17,7.17,0,0,0-2.45,1.82,8.5,8.5,0,0,0-1.57,2.74,9.71,9.71,0,0,0-.57,3.33V50.18h-7.16Z" fill="#fff"/><path d="M440.32,50.18h-6.79V45.77h-.13a8.51,8.51,0,0,1-4.21,4.06,14.28,14.28,0,0,1-5.85,1.23,15.51,15.51,0,0,1-6.69-1.36A13.34,13.34,0,0,1,411.9,46a15.72,15.72,0,0,1-2.83-5.51,23.77,23.77,0,0,1-.94-6.82,21.89,21.89,0,0,1,1.19-7.6,15.24,15.24,0,0,1,3.18-5.28A12.23,12.23,0,0,1,417,17.77a14.43,14.43,0,0,1,5.19-1,17.24,17.24,0,0,1,3.08.29,13.16,13.16,0,0,1,3,.91,12,12,0,0,1,2.67,1.6,8.73,8.73,0,0,1,2,2.29h.13V5.29h7.17Zm-25-15.91a15.79,15.79,0,0,0,.54,4.09,11.15,11.15,0,0,0,1.63,3.58,8.23,8.23,0,0,0,2.8,2.51,8.13,8.13,0,0,0,4,.95,8,8,0,0,0,4.12-1,8.43,8.43,0,0,0,2.83-2.64,11.82,11.82,0,0,0,1.64-3.68,16.69,16.69,0,0,0,.53-4.18q0-5.4-2.42-8.42a8,8,0,0,0-6.57-3,8.1,8.1,0,0,0-4.24,1,8.6,8.6,0,0,0-2.83,2.7A11,11,0,0,0,415.77,30,19.37,19.37,0,0,0,415.29,34.27Z" fill="#fff"/><path d="M191,56.84v2.07H180.8v5.88h9.51v2.07H180.8v6.4h10.28v2.07H178.36V56.84Z" fill="#fff"/><path d="M192.61,61.94h2.8l3.18,4.69,3.3-4.69h2.62l-4.57,6.17,5.13,7.22h-2.79l-3.69-5.54-3.69,5.54h-2.64l5-7Z" fill="#fff"/><path d="M214.86,64.27a3.29,3.29,0,0,0-2.2-.69,4,4,0,0,0-2,.43,3.5,3.5,0,0,0-1.27,1.17,4.7,4.7,0,0,0-.68,1.67,9,9,0,0,0-.21,2,7.8,7.8,0,0,0,.22,1.81,4.74,4.74,0,0,0,.68,1.57,3.62,3.62,0,0,0,1.2,1.1,3.67,3.67,0,0,0,1.77.41,3.55,3.55,0,0,0,2.53-.85A3.89,3.89,0,0,0,216,70.44h2.23a6.2,6.2,0,0,1-1.83,3.83,5.71,5.71,0,0,1-4,1.35,7,7,0,0,1-2.68-.49,5.25,5.25,0,0,1-1.95-1.4,6.23,6.23,0,0,1-1.18-2.17,9.18,9.18,0,0,1-.39-2.75,9.74,9.74,0,0,1,.38-2.81,6.32,6.32,0,0,1,1.17-2.28,5.4,5.4,0,0,1,2-1.53,6.35,6.35,0,0,1,2.74-.56,7.92,7.92,0,0,1,2.11.27,5.18,5.18,0,0,1,1.75.85,4.63,4.63,0,0,1,1.24,1.43,5.54,5.54,0,0,1,.62,2.06h-2.26A3.38,3.38,0,0,0,214.86,64.27Z" fill="#fff"/><path d="M222.89,56.84v7.07h.05a3,3,0,0,1,.72-1,4.07,4.07,0,0,1,1-.7,5.72,5.72,0,0,1,1.21-.4,6.49,6.49,0,0,1,1.22-.13,5.65,5.65,0,0,1,2.17.36,3.55,3.55,0,0,1,1.41,1,3.76,3.76,0,0,1,.76,1.55,8.05,8.05,0,0,1,.22,2v8.8H229.5V66.27a2.49,2.49,0,0,0-2.69-2.69,4.35,4.35,0,0,0-1.73.31,3.12,3.12,0,0,0-1.22.88,3.82,3.82,0,0,0-.73,1.33,5.57,5.57,0,0,0-.24,1.67v7.56h-2.18V56.84Z" fill="#fff"/><path d="M246.7,75.28a3.11,3.11,0,0,1-1.56.34,1.86,1.86,0,0,1-1.35-.48,2.11,2.11,0,0,1-.5-1.57,5.17,5.17,0,0,1-2.09,1.57,7.1,7.1,0,0,1-4.28.27,3.93,3.93,0,0,1-1.4-.65,3,3,0,0,1-.93-1.15,3.91,3.91,0,0,1-.35-1.72,4,4,0,0,1,.39-1.87,3.28,3.28,0,0,1,1-1.17,4.41,4.41,0,0,1,1.43-.69,15.4,15.4,0,0,1,1.66-.39c.6-.12,1.17-.21,1.7-.27a9.7,9.7,0,0,0,1.43-.26,2.39,2.39,0,0,0,1-.49,1.21,1.21,0,0,0,.36-1,2.19,2.19,0,0,0-.27-1.16,1.87,1.87,0,0,0-.69-.68,2.87,2.87,0,0,0-.95-.31,7.37,7.37,0,0,0-1-.07,4.54,4.54,0,0,0-2.31.53,2.28,2.28,0,0,0-1,2h-2.17a4.71,4.71,0,0,1,.51-2.1,3.9,3.9,0,0,1,1.23-1.38,5.12,5.12,0,0,1,1.75-.76,9,9,0,0,1,2.12-.24,13.2,13.2,0,0,1,1.78.13,4.65,4.65,0,0,1,1.6.53,3.07,3.07,0,0,1,1.16,1.13,3.61,3.61,0,0,1,.43,1.88v6.88a5.13,5.13,0,0,0,.09,1.13c.06.25.26.37.6.37a2.65,2.65,0,0,0,.67-.11Zm-3.54-6.86a2.85,2.85,0,0,1-1.07.45c-.45.09-.91.17-1.4.23s-1,.13-1.47.21a5.69,5.69,0,0,0-1.34.37,2.51,2.51,0,0,0-1,.73,2.08,2.08,0,0,0-.37,1.31,1.73,1.73,0,0,0,.22.91,1.82,1.82,0,0,0,.56.61,2.46,2.46,0,0,0,.81.33,4.37,4.37,0,0,0,1,.11,5.12,5.12,0,0,0,1.85-.3,3.88,3.88,0,0,0,1.25-.75,2.85,2.85,0,0,0,.72-1,2.37,2.37,0,0,0,.23-1Z" fill="#fff"/><path d="M250.77,61.94v2.13h.06a4.56,4.56,0,0,1,4.3-2.44,5.74,5.74,0,0,1,2.18.36,3.7,3.7,0,0,1,1.41,1,3.88,3.88,0,0,1,.76,1.55,8.59,8.59,0,0,1,.21,2v8.8h-2.17V66.27a2.49,2.49,0,0,0-2.69-2.69,4.4,4.4,0,0,0-1.74.31,3.16,3.16,0,0,0-1.21.88,3.67,3.67,0,0,0-.73,1.33,5.57,5.57,0,0,0-.25,1.67v7.56h-2.18V61.94Z" fill="#fff"/><path d="M272.92,79.11a6,6,0,0,1-4.66,1.64,8.83,8.83,0,0,1-1.89-.21,5.78,5.78,0,0,1-1.74-.67,4.33,4.33,0,0,1-1.3-1.22,3.54,3.54,0,0,1-.56-1.84H265a1.66,1.66,0,0,0,.37,1,2.69,2.69,0,0,0,.85.67,3.8,3.8,0,0,0,1.09.38,5.61,5.61,0,0,0,1.13.11,4,4,0,0,0,1.81-.37,3.47,3.47,0,0,0,1.24-1,4.45,4.45,0,0,0,.7-1.59,9.27,9.27,0,0,0,.22-2v-.88h-.05a3.72,3.72,0,0,1-1.71,1.83,5.23,5.23,0,0,1-2.42.58,5.85,5.85,0,0,1-2.59-.54,5.3,5.3,0,0,1-1.84-1.47,6.16,6.16,0,0,1-1.12-2.14,8.9,8.9,0,0,1-.37-2.61,10,10,0,0,1,.31-2.44,6.54,6.54,0,0,1,1-2.28,5.56,5.56,0,0,1,1.9-1.69,5.84,5.84,0,0,1,2.9-.66,4.86,4.86,0,0,1,2.3.56,3.89,3.89,0,0,1,1.64,1.67h0V61.94h2.05V74.19A7.08,7.08,0,0,1,272.92,79.11Zm-2.78-6a3.65,3.65,0,0,0,1.22-1.19,5.53,5.53,0,0,0,.68-1.67,8.42,8.42,0,0,0,.21-1.86,7.26,7.26,0,0,0-.2-1.74,4.93,4.93,0,0,0-.65-1.54,3.28,3.28,0,0,0-2.91-1.51,3.74,3.74,0,0,0-1.8.4,3.37,3.37,0,0,0-1.21,1.07,4.66,4.66,0,0,0-.7,1.55,7.92,7.92,0,0,0-.21,1.84,9.34,9.34,0,0,0,.17,1.82,5.47,5.47,0,0,0,.62,1.64,3.45,3.45,0,0,0,1.15,1.19,3.25,3.25,0,0,0,1.8.46A3.41,3.41,0,0,0,270.14,73.09Z" fill="#fff"/><path d="M287.07,74.48a6,6,0,0,1-3.74,1.14,6.7,6.7,0,0,1-2.76-.52,5.57,5.57,0,0,1-2-1.45,6,6,0,0,1-1.19-2.23A10.41,10.41,0,0,1,277,68.6a8.35,8.35,0,0,1,.46-2.8,6.71,6.71,0,0,1,1.3-2.2,5.9,5.9,0,0,1,2-1.45,6,6,0,0,1,2.5-.52,5.37,5.37,0,0,1,2.93.74A5.82,5.82,0,0,1,288,64.25a7.51,7.51,0,0,1,1,2.48,11,11,0,0,1,.22,2.57h-9.92a5.39,5.39,0,0,0,.2,1.67,3.79,3.79,0,0,0,.75,1.4,3.67,3.67,0,0,0,1.3,1,4.52,4.52,0,0,0,1.87.36,3.68,3.68,0,0,0,2.27-.65,3.12,3.12,0,0,0,1.17-2H289A5.36,5.36,0,0,1,287.07,74.48Zm-.53-8.6a3.73,3.73,0,0,0-.79-1.21,3.9,3.9,0,0,0-1.18-.8,3.65,3.65,0,0,0-1.5-.29,3.71,3.71,0,0,0-1.52.29,3.39,3.39,0,0,0-1.17.82,3.86,3.86,0,0,0-.77,1.2,4.5,4.5,0,0,0-.33,1.47h7.61A4.39,4.39,0,0,0,286.54,65.88Z" fill="#fff"/><path d="M294.94,58.91V56.84h14.64v2.07h-6.1V75.33H301V58.91Z" fill="#fff"/><path d="M310.86,61.94v2.83h.05a6,6,0,0,1,1.95-2.41,4.87,4.87,0,0,1,2.92-.73V64a6,6,0,0,0-2.23.37,3.38,3.38,0,0,0-1.48,1.06,4.46,4.46,0,0,0-.83,1.69,9.36,9.36,0,0,0-.25,2.3v6h-2.18V61.94Z" fill="#fff"/><path d="M329.16,75.28a3.11,3.11,0,0,1-1.56.34,1.86,1.86,0,0,1-1.35-.48,2.11,2.11,0,0,1-.5-1.57,5.17,5.17,0,0,1-2.09,1.57,7.1,7.1,0,0,1-4.28.27,3.93,3.93,0,0,1-1.4-.65,3,3,0,0,1-.93-1.15,3.91,3.91,0,0,1-.35-1.72,4,4,0,0,1,.39-1.87,3.28,3.28,0,0,1,1-1.17,4.41,4.41,0,0,1,1.43-.69,15.4,15.4,0,0,1,1.66-.39c.6-.12,1.17-.21,1.7-.27a9.7,9.7,0,0,0,1.43-.26,2.39,2.39,0,0,0,1-.49,1.21,1.21,0,0,0,.36-1,2.19,2.19,0,0,0-.27-1.16,1.87,1.87,0,0,0-.69-.68,2.87,2.87,0,0,0-.95-.31,7.37,7.37,0,0,0-1-.07,4.54,4.54,0,0,0-2.31.53,2.28,2.28,0,0,0-1,2h-2.18a4.85,4.85,0,0,1,.52-2.1A3.9,3.9,0,0,1,319,62.63a5.12,5.12,0,0,1,1.75-.76,9,9,0,0,1,2.12-.24,13.2,13.2,0,0,1,1.78.13,4.65,4.65,0,0,1,1.6.53,3.14,3.14,0,0,1,1.16,1.13,3.61,3.61,0,0,1,.43,1.88v6.88a5.13,5.13,0,0,0,.09,1.13c.06.25.26.37.6.37a2.65,2.65,0,0,0,.67-.11Zm-3.54-6.86a2.85,2.85,0,0,1-1.07.45c-.45.09-.91.17-1.4.23l-1.47.21a5.69,5.69,0,0,0-1.34.37,2.51,2.51,0,0,0-1,.73,2.08,2.08,0,0,0-.37,1.31,1.73,1.73,0,0,0,.22.91,1.82,1.82,0,0,0,.56.61,2.46,2.46,0,0,0,.81.33,4.37,4.37,0,0,0,1,.11,5.12,5.12,0,0,0,1.85-.3,3.88,3.88,0,0,0,1.25-.75,2.85,2.85,0,0,0,.72-1,2.37,2.37,0,0,0,.23-1Z" fill="#fff"/><path d="M340.85,75.33V73.52h-.05a3.24,3.24,0,0,1-1.69,1.61,6.57,6.57,0,0,1-2.54.49,5.91,5.91,0,0,1-2.68-.57,5.59,5.59,0,0,1-1.9-1.53,6.81,6.81,0,0,1-1.14-2.23,9.84,9.84,0,0,1,0-5.38A6.3,6.3,0,0,1,332,63.69a5.33,5.33,0,0,1,1.9-1.5,6,6,0,0,1,2.65-.56,6.3,6.3,0,0,1,1.1.11,6,6,0,0,1,1.18.34,5.65,5.65,0,0,1,1.11.65,3.57,3.57,0,0,1,.89,1h.05V56.84H343V75.33ZM333,70.58a4.85,4.85,0,0,0,.74,1.59A3.65,3.65,0,0,0,335,73.29a3.93,3.93,0,0,0,1.84.41,3.67,3.67,0,0,0,1.87-.44A3.73,3.73,0,0,0,340,72.11a4.93,4.93,0,0,0,.71-1.62,8.12,8.12,0,0,0,.22-1.84,8,8,0,0,0-.23-1.9,4.8,4.8,0,0,0-.73-1.62,3.84,3.84,0,0,0-1.3-1.13,4.06,4.06,0,0,0-1.92-.42,3.72,3.72,0,0,0-1.87.43,3.54,3.54,0,0,0-1.23,1.17,5.12,5.12,0,0,0-.67,1.66,8.69,8.69,0,0,0-.2,1.92A7,7,0,0,0,333,70.58Z" fill="#fff"/><path d="M355.77,74.48A6,6,0,0,1,352,75.62a6.65,6.65,0,0,1-2.75-.52,5.49,5.49,0,0,1-2-1.45,6,6,0,0,1-1.19-2.23,10.41,10.41,0,0,1-.45-2.82,8.1,8.1,0,0,1,.46-2.8,6.87,6.87,0,0,1,1.29-2.2,5.91,5.91,0,0,1,4.47-2,5.41,5.41,0,0,1,2.94.74,5.79,5.79,0,0,1,1.87,1.88,7.53,7.53,0,0,1,1,2.48,10.49,10.49,0,0,1,.21,2.57H348a5.71,5.71,0,0,0,.21,1.67,3.62,3.62,0,0,0,2.05,2.37,4.49,4.49,0,0,0,1.87.36,3.7,3.7,0,0,0,2.27-.65,3.12,3.12,0,0,0,1.17-2h2.15A5.36,5.36,0,0,1,355.77,74.48Zm-.53-8.6a3.9,3.9,0,0,0-.79-1.21,4,4,0,0,0-1.18-.8,3.68,3.68,0,0,0-1.5-.29,3.76,3.76,0,0,0-1.53.29,3.44,3.44,0,0,0-1.16.82,3.86,3.86,0,0,0-.77,1.2,4.78,4.78,0,0,0-.34,1.47h7.62A4.64,4.64,0,0,0,355.24,65.88Z" fill="#fff"/><path d="M369.81,75.33V73.52h-.05a3.24,3.24,0,0,1-1.69,1.61,6.53,6.53,0,0,1-2.54.49,5.9,5.9,0,0,1-2.67-.57,5.4,5.4,0,0,1-1.9-1.53,6.63,6.63,0,0,1-1.14-2.23,9.07,9.07,0,0,1-.39-2.69,9.4,9.4,0,0,1,.38-2.69,6.28,6.28,0,0,1,1.12-2.22,5.51,5.51,0,0,1,1.9-1.5,6,6,0,0,1,2.65-.56,6.3,6.3,0,0,1,1.1.11,5.65,5.65,0,0,1,1.18.34,5.45,5.45,0,0,1,1.12.65,3.54,3.54,0,0,1,.88,1h.05V56.84H372V75.33ZM362,70.58a4.86,4.86,0,0,0,.75,1.59A3.65,3.65,0,0,0,364,73.29a3.92,3.92,0,0,0,1.83.41,3.65,3.65,0,0,0,1.87-.44A3.76,3.76,0,0,0,369,72.11a4.92,4.92,0,0,0,.7-1.62,7.59,7.59,0,0,0,.22-1.84,8,8,0,0,0-.23-1.9,4.62,4.62,0,0,0-.73-1.62A3.81,3.81,0,0,0,367.64,64a4.11,4.11,0,0,0-1.93-.42,3.75,3.75,0,0,0-1.87.43,3.63,3.63,0,0,0-1.23,1.17,5.12,5.12,0,0,0-.67,1.66,9.33,9.33,0,0,0-.2,1.92A7,7,0,0,0,362,70.58Z" fill="#fff"/><path d="M394.86,56.84v2.07h-9.59v5.88h8.41v2.07h-8.41v8.47h-2.44V56.84Z" fill="#fff"/><path d="M406.11,75.33V73.21h-.05A4.47,4.47,0,0,1,404.29,75a5.35,5.35,0,0,1-2.54.58,6,6,0,0,1-2.18-.35,3.48,3.48,0,0,1-1.41-1,3.64,3.64,0,0,1-.75-1.54,8.17,8.17,0,0,1-.22-2V61.94h2.18V71a2.68,2.68,0,0,0,.72,2,2.65,2.65,0,0,0,2,.72,4.35,4.35,0,0,0,1.73-.31,3.3,3.3,0,0,0,1.22-.88,4,4,0,0,0,.73-1.33,5.57,5.57,0,0,0,.24-1.67V61.94h2.18V75.33Z" fill="#fff"/><path d="M413.49,61.94v2.13h.05a4.58,4.58,0,0,1,4.31-2.44A5.74,5.74,0,0,1,420,62a3.7,3.7,0,0,1,1.41,1,3.74,3.74,0,0,1,.75,1.55,8.05,8.05,0,0,1,.22,2v8.8h-2.18V66.27a2.48,2.48,0,0,0-2.69-2.69,4.38,4.38,0,0,0-1.73.31,3.08,3.08,0,0,0-1.21.88,3.69,3.69,0,0,0-.74,1.33,5.57,5.57,0,0,0-.24,1.67v7.56h-2.18V61.94Z" fill="#fff"/><path d="M435.36,75.33V73.52h-.05a3.26,3.26,0,0,1-1.7,1.61,6.52,6.52,0,0,1-2.53.49,5.91,5.91,0,0,1-2.68-.57,5.59,5.59,0,0,1-1.9-1.53,6.81,6.81,0,0,1-1.14-2.23A9.06,9.06,0,0,1,425,68.6a9.4,9.4,0,0,1,.37-2.69,6.45,6.45,0,0,1,1.12-2.22,5.51,5.51,0,0,1,1.9-1.5,6,6,0,0,1,2.66-.56,6.4,6.4,0,0,1,1.1.11,6,6,0,0,1,1.18.34,5.65,5.65,0,0,1,1.11.65,3.57,3.57,0,0,1,.89,1h.05V56.84h2.18V75.33Zm-7.83-4.75a4.85,4.85,0,0,0,.74,1.59,3.65,3.65,0,0,0,1.28,1.12,3.92,3.92,0,0,0,1.83.41,3.68,3.68,0,0,0,1.88-.44,3.73,3.73,0,0,0,1.25-1.15,4.93,4.93,0,0,0,.71-1.62,8.11,8.11,0,0,0,.21-1.84,7.49,7.49,0,0,0-.23-1.9,4.45,4.45,0,0,0-.73-1.62A3.72,3.72,0,0,0,433.18,64a4.08,4.08,0,0,0-1.93-.42,3.77,3.77,0,0,0-1.87.43,3.51,3.51,0,0,0-1.22,1.17,4.91,4.91,0,0,0-.67,1.66,8.69,8.69,0,0,0-.21,1.92A6.61,6.61,0,0,0,427.53,70.58Z" fill="#fff"/><polygon points="76.42 63.27 173.74 63.27 173.74 56.9 84.41 56.9 76.42 63.27" fill="#f28e00"/><polygon points="62.02 75.15 173.74 75.15 173.74 68.78 69.92 68.71 62.02 75.15" fill="#008436"/><path d="M.1,38.4c0-1.68,0-3.36,0-5a41.49,41.49,0,0,1,.33-4.6,7.79,7.79,0,0,1,2.37-4.55C4.05,23.05,5.36,22,6.64,20.88s2.39-2,3.59-3l3.1-2.57,5.55-4.6,4.91-4.08c2.08-1.74,4.14-3.53,6.27-5.21A10.41,10.41,0,0,1,32.41.28,3.14,3.14,0,0,1,33.61,0a4,4,0,0,1,3.82,3.25,3.86,3.86,0,0,1-.07,2.11,4.15,4.15,0,0,1-1.11,1.51c-1.83,1.6-3.7,3.14-5.56,4.7-2.44,2.06-4.88,4.11-7.32,6.18-1.71,1.46-3.41,2.95-5.12,4.41-2,1.7-4,3.4-6,5.08A7.48,7.48,0,0,0,9.6,30.63a6.39,6.39,0,0,0-.12,1.25,5.59,5.59,0,0,0,1.82,4.65c1.5,1.54,3.08,3,4.62,4.48,1.38,1.32,2.75,2.64,4.14,4q1.88,1.74,3.77,3.46c.37.33.66.23.68-.27a25,25,0,0,0,0-2.6,1.05,1.05,0,0,0-.38-.63c-1.73-1.59-3.48-3.16-5.22-4.74S15.4,37,13.63,35.42a4,4,0,0,1-1.28-4.15A3.2,3.2,0,0,1,16,28.83a5.11,5.11,0,0,1,2.68,1.41c1.13,1.05,2.35,2,3.5,3,2.19,2,4.36,4,6.55,6,1.76,1.59,3.54,3.15,5.3,4.73a7.37,7.37,0,0,1,2,3.2,6.24,6.24,0,0,1,.28,2.17q0,11.37,0,22.75a3.47,3.47,0,0,1-.33,2.09,1.72,1.72,0,0,1-2.12.67,16.35,16.35,0,0,1-4.42-3l-9.33-7.4c-1.43-1.14-2.87-2.27-4.29-3.43s-3.09-2.49-4.6-3.77c-2-1.72-4.1-3.42-6-5.23a33.26,33.26,0,0,1-3.6-4A6.34,6.34,0,0,1,.4,44.5C.32,43.23.14,42,0,40.69A20.84,20.84,0,0,0,.1,38.4Z" fill="#fff"/><path d="M17.59,26l2.29-1.95L25,19.72c.42-.35.81-.73,1.25-1a.92.92,0,0,1,.71-.07,3.93,3.93,0,0,1,1.14.57,2.73,2.73,0,0,1,1.21,2.12,3.53,3.53,0,0,1-1.22,3.27c-1.68,1.36-3.31,2.78-5,4.19a.72.72,0,0,1-1.13,0c-1-.83-2.09-1.57-3.18-2.3A5.87,5.87,0,0,0,17.59,26Z" fill="#fff"/><path d="M29.6,30.48a3.73,3.73,0,0,1-1.49,2.93.63.63,0,0,1-.58,0c-1.07-.87-2.11-1.78-3.17-2.67-.28-.23-.36-.38,0-.66,1-.83,2-1.69,3-2.56a.45.45,0,0,1,.7,0A4.33,4.33,0,0,1,29.6,30.48Z" fill="#fff"/><path d="M78.17,40.69c-.14,1.27-.33,2.54-.4,3.81a6.34,6.34,0,0,1-1.26,3.56,32.51,32.51,0,0,1-3.61,4c-1.94,1.81-4,3.51-6,5.23-1.52,1.28-3.06,2.52-4.6,3.77s-2.86,2.29-4.3,3.43l-9.32,7.4a16.5,16.5,0,0,1-4.42,3,1.74,1.74,0,0,1-2.13-.67,3.47,3.47,0,0,1-.33-2.09q0-11.38,0-22.75a6.47,6.47,0,0,1,.27-2.17,7.46,7.46,0,0,1,2-3.2c1.77-1.58,3.55-3.14,5.31-4.73,2.19-2,4.35-4,6.55-6,1.14-1,2.36-2,3.5-3a5.11,5.11,0,0,1,2.68-1.41,3.21,3.21,0,0,1,3.69,2.44,4,4,0,0,1-1.29,4.15C62.76,37,61,38.59,59.26,40.18s-3.48,3.15-5.21,4.74a1.07,1.07,0,0,0-.39.63c0,.86,0,1.73,0,2.6,0,.5.3.6.67.27Q56.24,46.7,58.1,45q2.09-2,4.14-4c1.55-1.48,3.13-2.94,4.63-4.48a5.62,5.62,0,0,0,1.82-4.65,7.26,7.26,0,0,0-.12-1.25A7.55,7.55,0,0,0,66,27.24c-2-1.68-4-3.38-6-5.08-1.72-1.46-3.41-2.95-5.13-4.41-2.43-2.07-4.88-4.12-7.32-6.18-1.85-1.56-3.73-3.1-5.55-4.7A4.17,4.17,0,0,1,40.8,5.36a3.77,3.77,0,0,1-.06-2.11A4,4,0,0,1,44.55,0a3.19,3.19,0,0,1,1.21.28A10.34,10.34,0,0,1,48.1,1.41c2.14,1.68,4.19,3.47,6.28,5.21l4.9,4.08,5.56,4.6,3.09,2.57q1.8,1.5,3.59,3c1.28,1.1,2.59,2.17,3.81,3.33a7.75,7.75,0,0,1,2.38,4.55,44.06,44.06,0,0,1,.33,4.6c0,1.68,0,3.36,0,5A19.89,19.89,0,0,0,78.17,40.69Z" fill="#fff"/><path d="M60.82,26.47c-1.09.73-2.17,1.47-3.18,2.3a.72.72,0,0,1-1.13,0c-1.64-1.41-3.27-2.83-4.95-4.19a3.53,3.53,0,0,1-1.22-3.27,2.73,2.73,0,0,1,1.21-2.12,3.93,3.93,0,0,1,1.14-.57.92.92,0,0,1,.71.07c.44.3.83.68,1.25,1l5.13,4.33L62.07,26A5.87,5.87,0,0,0,60.82,26.47Z" fill="#fff"/><path d="M50.06,30.48a3.73,3.73,0,0,0,1.49,2.93.63.63,0,0,0,.58,0c1.07-.87,2.11-1.78,3.17-2.67.28-.23.36-.38,0-.66-1-.83-2-1.69-3.05-2.56a.45.45,0,0,0-.7,0A4.33,4.33,0,0,0,50.06,30.48Z" fill="#fff"/><line x1="476.09" y1="14.94" x2="476.09" y2="66" fill="none" stroke="#7497ce" stroke-miterlimit="10" stroke-width="2"/></g></g></svg>