<svg xmlns="http://www.w3.org/2000/svg" width="25" height="25" viewBox="0 0 25 25">
  <defs>
    <style>
      .cls-1 {
        fill: #bdd2f5;
      }
    </style>
  </defs>
  <path id="Union_1" data-name="Union 1" class="cls-1" d="M0,12.5A12.5,12.5,0,1,1,12.5,25,12.51,12.51,0,0,1,0,12.5ZM12.5,23.708a11.173,11.173,0,0,0,7.911-3.284,3.486,3.486,0,0,0-.353-.592,5.392,5.392,0,0,0-3.65-2.358A6.66,6.66,0,0,1,12.532,18.7a6.588,6.588,0,0,1-3.876-1.227,5.284,5.284,0,0,0-3.65,2.358c-.129.207-.259.414-.371.637A11.171,11.171,0,0,0,12.5,23.708ZM1.292,12.5a11.145,11.145,0,0,0,2.416,6.935c.062-.105.128-.209.2-.313a6.625,6.625,0,0,1,4.651-2.939,1.083,1.083,0,0,1,.775.194,5.464,5.464,0,0,0,6.4,0,1.122,1.122,0,0,1,.775-.194,6.69,6.69,0,0,1,4.651,2.939c.062.089.119.177.173.266A11.2,11.2,0,1,0,1.292,12.5Zm5.782-2.132A5.426,5.426,0,1,1,12.5,15.795,5.417,5.417,0,0,1,7.074,10.368Zm1.292,0A4.134,4.134,0,1,0,12.5,6.234,4.142,4.142,0,0,0,8.365,10.368Z"/>
</svg>
